<svg xmlns="http://www.w3.org/2000/svg" width="64" height="64" fill="currentColor" class="bi bi-question-circle"
     viewBox="0 0 16 16">
    <path d="M 6.978 12.24 C 6.805 12.24 6.641 12.157 6.537 12.013 L 4.383 9.029 L 2.978 9.029 L 2.978 7.942 L 4.66 7.942 C 4.837 7.942 4.999 8.025 5.101 8.167 L 6.862 10.606 L 9.548 4.469 C 9.635 4.272 9.83 4.144 10.047 4.144 L 13.403 4.144 L 13.403 5.232 L 10.401 5.232 L 7.475 11.915 C 7.397 12.093 7.229 12.215 7.034 12.236 C 7.018 12.239 6.997 12.24 6.978 12.24 Z"
          fill="#00C389"/>
    <path d="M8 15A7 7 0 1 1 8 1a7 7 0 0 1 0 14zm0 1A8 8 0 1 0 8 0a8 8 0 0 0 0 16z"/>
    <path d="M5.255 5.786a.237.237 0 0 0 .241.247h.825c.138 0 .248-.113.266-.25.09-.656.54-1.134 1.342-1.134.686 0 1.314.343 1.314 1.168 0 .635-.374.927-.965 1.371-.673.489-1.206 1.06-1.168 1.987l.003.217a.25.25 0 0 0 .25.246h.811a.25.25 0 0 0 .25-.25v-.105c0-.718.273-.927 1.01-1.486.609-.463 1.244-.977 1.244-2.056 0-1.511-1.276-2.241-2.673-2.241-1.267 0-2.655.59-2.75 2.286zm1.557 5.763c0 .533.425.927 1.01.927.609 0 1.028-.394 1.028-.927 0-.552-.42-.94-1.029-.94-.584 0-1.009.388-1.009.94z"/>
</svg>
